HIERARCHY
ROOT Hips
{
  OFFSET 0 0 0
  CHANNELS 6 Xposition Yposition Zposition Zrotation Yrotation Xrotation
  JOINT LeftThigh
  {
    OFFSET 8.409438 0 -5.917753
    CHANNELS 3 Zrotation Yrotation Xrotation
    JOINT LeftLeg
    {
      OFFSET 0 0 -42.358652
      CHANNELS 3 Zrotation Yrotation Xrotation
      JOINT LeftFoot
      {
        OFFSET 0 0 -39.357303
        CHANNELS 3 Zrotation Yrotation Xrotation
      }
    }
  }
  JOINT RightThigh
  {
    OFFSET -8.409438 0 -5.917753
    CHANNELS 3 Zrotation Yrotation Xrotation
    JOINT RightLeg
    {
      OFFSET 0 0 -42.358652
      CHANNELS 3 Zrotation Yrotation Xrotation
      JOINT RightFoot
      {
        OFFSET 0 0 -39.357303
        CHANNELS 3 Zrotation Yrotation Xrotation
      }
    }
  }
  JOINT SpineLow
  {
    OFFSET 0 0 4.719101
    CHANNELS 3 Zrotation Yrotation Xrotation
    JOINT SpineMid
    {
      OFFSET 0 0 12.899191
      CHANNELS 3 Zrotation Yrotation Xrotation
      JOINT Chest
      {
        OFFSET 0 0 12.899191
        CHANNELS 3 Zrotation Yrotation Xrotation
        JOINT LeftShoulder
        {
          OFFSET 7.550562 1.41573 9.438202
          CHANNELS 3 Zrotation Yrotation Xrotation
          JOINT LeftArm
          {
            OFFSET 9.155056 0 4.247191
            CHANNELS 3 Zrotation Yrotation Xrotation
            JOINT LeftForearm
            {
              OFFSET 0 0 25.771955
              CHANNELS 3 Zrotation Yrotation Xrotation
              JOINT LeftHand
              {
                OFFSET 0 0 25.197169
                CHANNELS 3 Zrotation Yrotation Xrotation
              }
            }
          }
        }
        JOINT RightShoulder
        {
          OFFSET -7.550562 1.41573 9.438202
          CHANNELS 3 Zrotation Yrotation Xrotation
          JOINT RightArm
          {
            OFFSET -9.155056 0 4.247191
            CHANNELS 3 Zrotation Yrotation Xrotation
            JOINT RightForearm
            {
              OFFSET 0 0 -25.771955
              CHANNELS 3 Zrotation Yrotation Xrotation
              JOINT RightHand
              {
                OFFSET 0 0 -25.197169
                CHANNELS 3 Zrotation Yrotation Xrotation
              }
            }
          }
        }
        JOINT Neck
        {
          OFFSET 0 0 15.101124
          CHANNELS 3 Zrotation Yrotation Xrotation
          JOINT Head
          {
            OFFSET 0 0 11.325843
            CHANNELS 3 Zrotation Yrotation Xrotation
            End Site
            {
              OFFSET 0 0 14.157303
            }
          }
        }
      }
    }
  }
}
MOTION
Frames: 17
Frame Time: 0.0
0.0  101.685394  0.0  -1.931977  -5.248344  -123.431324  21.562539  -22.02277  0.438477  -6.068435  12.5662  41.726735  -9.148278  4.531191  -2.938731  29.141941  -1.109031  -71.644758  -23.1463  17.450179  -3.140832  -17.816363  -10.518  18.085132  -4.00003  0.297512  3.704062  -10.860164  1.419001  10.045084  -10.860163  1.419002  10.045083  19.551364  31.318323  34.323632  163.223439  61.107915  -141.609722  -26.0975  0.998586  120.794031  108.166328  15.286632  -34.17864  2.110475  3.143674  23.687333  88.710476  22.373948  25.944731  12.166357  -10.848166  -100.813069  49.996169  26.046235  18.991483  2.94432  5.171625  13.761484  2.091231  3.947447  10.289416  
0.0  101.685394  0.0  -1.201829  -5.410126  -124.259312  21.823513  -23.409372  1.095355  -7.608598  15.932947  41.650765  -6.928168  4.550344  -2.791922  26.836522  -5.582969  -75.103324  -20.069273  21.813545  6.063048  -11.415032  -12.564244  18.276362  -3.916859  0.411429  3.794808  -10.613725  1.730561  10.277008  -10.613724  1.73056  10.277008  19.280555  31.019479  33.30261  164.229878  61.141908  -140.571508  -26.307261  -0.089648  120.25484  108.518459  16.440517  -33.017126  0.496358  4.674714  23.264381  90.69184  19.648343  26.576475  10.679767  -9.565024  -100.826014  49.225121  24.915676  17.456874  2.493052  5.283873  13.238591  1.754662  4.019177  9.900491  
0.0  101.685394  0.0  -0.507422  -5.18481  -124.89761  20.063601  -22.590986  1.831605  -8.024251  18.000758  41.697912  -3.627584  4.357743  -2.150516  22.530511  -12.206176  -76.673396  -10.492731  23.376681  16.286561  -8.693788  -13.718909  18.233008  -4.151417  0.551043  3.952005  -11.226337  2.172452  10.674816  -11.226337  2.172452  10.674817  19.838322  31.244135  31.373959  166.016053  61.020182  -139.267615  -26.511766  -1.561624  119.830812  108.838286  17.600736  -31.565149  1.169826  5.53301  22.565754  91.717871  17.274519  27.637494  10.773963  -8.149873  -100.363144  49.053014  25.18452  16.72318  3.021685  5.55879  11.99029  2.156081  4.230368  8.958361  
0.0  101.685394  0.0  0.510223  -5.232573  -125.342225  17.830603  -20.627961  1.741552  -6.321954  18.71028  43.199626  -1.009607  3.932811  -1.525256  18.687065  -19.972906  -76.717296  3.544255  22.074816  25.902051  -11.498116  -13.201531  18.754926  -4.434653  0.769227  4.171642  -11.954349  2.849326  11.224114  -11.954349  2.849326  11.224114  19.981771  31.731984  28.447139  168.787506  61.044247  -137.481156  -26.299892  -2.857091  119.90898  109.678867  19.325756  -30.116921  3.352462  5.467047  21.787818  91.691248  15.543069  28.85772  10.993925  -6.681896  -99.899343  48.666606  25.36772  16.126676  3.962849  5.709719  10.290561  2.874204  4.350621  7.674783  
0.0  101.685394  0.0  1.263445  -5.539689  -125.653882  17.278627  -18.417418  0.894034  -5.446936  18.181354  44.924562  1.146529  3.460802  -1.044163  15.933429  -27.565727  -74.996039  16.605734  19.126592  33.115071  -16.12815  -10.94915  19.268299  -4.714935  1.003418  4.306845  -12.673341  3.557172  11.535626  -12.673341  3.557172  11.535626  20.085667  32.124298  25.858634  172.20931  61.211472  -135.593862  -26.664086  -4.445072  119.566083  109.812036  20.276458  -28.598447  5.89686  4.272707  21.250771  91.968706  13.875121  30.812171  10.181862  -6.103789  -99.281855  48.101663  25.071818  14.740719  5.106444  5.684404  9.07556  3.743002  4.340543  6.754012  
0.0  101.685394  0.0  1.822524  -6.075761  -125.823326  18.922901  -17.03919  0.222136  -5.075422  16.168785  46.504572  0.543079  3.120623  -1.141787  14.409585  -28.546082  -73.071517  18.35777  17.409892  38.49394  -15.935157  -9.017495  19.212881  -4.804795  1.181706  4.228028  -12.895363  4.041072  11.282737  -12.895362  4.041072  11.282737  19.846466  32.516485  24.925733  175.623713  61.731546  -133.619638  -27.130716  -5.893395  119.17423  109.876537  21.022843  -27.181022  7.606934  2.170213  22.123062  92.505079  12.65884  33.55712  8.536367  -4.548478  -99.595178  46.596139  23.803681  13.960295  5.614858  5.568537  8.932467  4.127251  4.259886  6.643443  
0.0  101.685394  0.0  2.265385  -6.839632  -125.722298  22.164536  -17.057545  -0.01395  -4.512419  12.624187  47.605672  -3.492646  3.234574  -1.838645  14.842711  -29.260166  -73.132281  19.343486  18.335268  45.218795  -13.460322  -8.512025  18.87522  -4.881262  1.273715  4.056786  -13.102215  4.270092  10.793787  -13.102215  4.270092  10.793787  20.310721  33.405566  25.385939  179.741121  62.48105  -130.464076  -27.513033  -7.01584  118.836927  110.029969  21.532337  -25.889322  8.595701  0.489383  23.442259  93.916212  12.044085  36.414397  6.958255  -3.455455  -99.936065  45.813298  22.541782  13.797117  6.026807  5.610592  9.256384  4.432474  4.300793  6.882054  
0.0  101.685394  0.0  2.478429  -7.599582  -125.370565  25.323171  -17.996556  -0.040985  -4.039274  9.364687  48.012015  -8.003141  3.643899  -2.787957  16.786714  -30.224705  -74.547271  20.884373  20.686297  53.109408  -10.09844  -8.440889  18.054157  -4.813266  1.329818  3.949604  -12.916346  4.390902  10.496379  -12.916346  4.390902  10.496378  19.842198  33.759816  25.912748  -176.051333  62.900358  -126.572063  -27.896755  -7.962837  118.423144  110.263256  21.904045  -24.753998  8.106676  -0.994255  24.299883  95.611082  11.883851  38.881095  5.799457  -3.73329  -100.696291  46.761793  21.264645  14.548733  5.868533  5.412328  9.426248  4.315639  4.151297  7.013093  
0.0  101.685394  0.0  2.81584  -8.08919  -125.351374  27.050993  -18.687585  0.344758  -3.027653  7.461208  48.3254  -11.220132  3.583531  -3.509163  19.653426  -29.476781  -76.167173  20.615254  24.082986  60.867218  -5.957606  -8.080026  17.120884  -4.51909  1.332575  3.977567  -12.110899  4.357708  10.593814  -12.110898  4.357708  10.593814  17.196092  34.060967  25.666518  -172.555135  62.848271  -123.404065  -28.292222  -8.792807  117.914708  110.50564  22.257158  -23.807084  5.60639  -1.71165  24.685414  97.428353  12.05751  40.790976  5.482505  -4.591178  -99.948529  47.999203  21.852804  14.737123  4.754079  5.236811  9.332659  3.483865  4.001533  6.954287  
0.0  101.685394  0.0  3.264733  -8.699681  -125.433904  28.058126  -19.230299  0.631536  -2.111696  6.645996  48.656426  -12.917574  3.498808  -3.995916  21.886469  -25.952994  -77.273191  17.662443  26.578604  67.74567  -1.930105  -7.421374  16.456498  -4.283931  1.336462  4.000532  -11.466809  4.33525  10.672949  -11.466808  4.33525  10.672949  15.03894  34.173507  25.324075  -169.901794  62.327997  -121.057404  -28.673803  -9.619854  117.294727  110.752887  22.639072  -23.105016  3.357517  -2.092917  24.534352  99.107631  11.925396  42.499111  5.398079  -7.24236  -99.053368  50.71062  22.677731  14.285745  3.976436  5.18001  9.2552  2.902439  3.946442  6.903235  
0.0  101.685394  0.0  3.423687  -9.573617  -125.741663  28.781837  -20.175725  0.849634  -2.369604  7.444654  48.526954  -12.438325  3.558955  -4.08592  22.76657  -21.951935  -77.043748  14.410722  27.51165  73.622383  0.761424  -6.717999  16.233482  -4.408881  1.288222  4.047309  -11.811597  4.232203  10.799409  -11.811597  4.232203  10.799408  15.281747  34.575007  24.883917  -168.258664  61.410012  -119.602142  -28.983557  -10.529539  116.552828  110.971735  23.003416  -22.592066  3.396485  -1.618844  24.469661  100.475041  12.335376  43.959534  6.267151  -9.750997  -98.822004  53.367761  23.383524  14.373032  4.494845  5.580518  9.11414  3.285868  4.253743  6.789479  
0.0  101.685394  0.0  3.160986  -10.362108  -125.875497  28.850361  -21.085591  0.864726  -3.457608  9.368242  47.828121  -10.087005  3.769968  -3.675135  23.084075  -18.846671  -76.234446  11.697662  27.489624  78.943351  1.957105  -5.458988  16.030941  -4.847664  1.189106  4.001393  -13.026822  4.0244  10.660838  -13.026821  4.0244  10.660837  17.646438  35.142601  24.939504  -167.377328  60.359586  -118.833535  -29.285454  -11.464084  115.75708  111.127993  23.275788  -22.03188  5.301925  -0.726904  24.562556  101.265536  12.814145  45.238192  6.913364  -10.525567  -98.908643  54.180209  23.500613  14.249064  6.012824  6.310819  9.217435  4.410714  4.825528  6.844559  
0.0  101.685394  0.0  2.733261  -11.358533  -125.662577  28.72284  -21.801015  0.555116  -4.357699  11.289235  47.124779  -7.670307  3.792968  -3.35111  23.470754  -16.344861  -75.59484  9.60489  26.183011  84.191247  1.545197  -3.922971  16.077596  -5.249714  1.052754  3.857984  -14.152967  3.687721  10.269927  -14.152968  3.687721  10.269928  20.22325  35.522804  25.457065  -166.74286  59.434713  -118.315679  -29.601209  -12.380003  114.896413  111.235948  23.461864  -21.25075  7.305954  0.014898  25.097883  101.436562  13.519287  46.434853  7.532445  -10.496872  -98.642651  54.624788  23.690884  13.87068  7.525847  6.973159  9.580678  5.52922  5.350165  7.091663  
0.0  101.685394  0.0  2.410909  -12.646648  -125.356551  28.718715  -22.319258  0.096135  -4.999636  13.077204  46.621068  -5.27498  3.652652  -3.168275  23.779062  -14.399541  -74.710763  7.399995  23.949036  89.032409  0.479554  -1.786419  15.988914  -5.415876  0.953185  3.663412  -14.631993  3.400504  9.750735  -14.631993  3.400504  9.750735  21.661073  35.366446  26.099342  -165.960875  58.959953  -118.043234  -30.161737  -13.074726  114.095362  111.307287  23.730928  -20.233501  8.295553  0.244412  25.942417  101.313813  14.318144  47.476981  7.764214  -8.964054  -98.295347  54.271685  23.57428  13.549189  8.461774  7.21202  10.147374  6.21966  5.552332  7.501858  
0.0  101.685394  0.0  2.20768  -13.973857  -124.99136  28.864749  -22.672807  -0.486313  -5.251691  14.224478  46.401484  -3.320669  3.543029  -3.009601  23.679179  -13.014533  -73.195124  5.394941  21.19946  93.074256  -0.667161  0.619803  15.899667  -5.383511  0.864652  3.567446  -14.560796  3.13485  9.510216  -14.560796  3.13485  9.510217  21.642488  35.106401  26.000848  -165.143348  58.513023  -117.502107  -30.444692  -13.884441  113.308271  111.322851  24.16906  -19.072139  8.234115  0.110997  26.161469  101.017611  15.209574  48.339732  7.234172  -5.609241  -98.050685  52.466598  22.810223  13.156845  8.668385  7.14967  10.317336  6.373737  5.511506  7.627901  
0.0  101.685394  0.0  2.064061  -15.193056  -124.362161  29.070004  -22.759459  -1.358908  -4.391288  14.042074  46.68758  -3.031966  3.492831  -2.963127  23.718614  -12.249564  -71.333272  3.726027  19.388839  96.449745  -1.268943  3.290911  15.781665  -5.291745  0.800122  3.51012  -14.321795  2.934584  9.372728  -14.321794  2.934585  9.372728  20.740119  34.863081  25.24323  -163.718009  58.356312  -116.89543  -30.750499  -14.245352  112.858034  111.283594  24.692388  -17.921473  7.793628  -0.177846  26.012294  100.66317  16.277779  48.892263  6.987913  -1.703781  -98.049963  50.446535  22.007651  13.19311  8.598009  6.86423  10.152498  6.328341  5.293745  7.510049  
0.0  101.685394  0.0  2.03693  -16.202963  -123.36139  29.215205  -22.455554  -2.521859  -2.588088  12.773976  47.43659  -4.081143  3.531593  -3.097259  23.706027  -12.335094  -69.24057  3.315782  18.919161  99.519423  -1.086634  5.881248  15.457948  -5.233954  0.729241  3.471465  -14.175179  2.726036  9.285178  -14.175179  2.726036  9.285178  19.853922  34.78545  24.057979  -162.768299  58.313451  -116.121289  -30.985332  -14.754522  112.316317  111.226233  25.111664  -16.945992  7.467138  -0.430003  25.08413  100.269403  17.137  49.178147  6.985016  -0.076108  -97.812017  50.167432  21.40763  12.76406  8.521796  6.589623  9.602866  6.282189  5.078575  7.103606  
